# xmcd CD database file
#
# Track frame offsets:
#	150
#	11925
#	24000
#	36675
#	49705
#	64912
#	77567
#	91925
#	104600
#	118587
#	132445
#	145332
#	159207
#	172445
#	184377
#	196410
#	209365
#	222942
#	238205
#	253807
#	268602
#
# Disc length: 3742 seconds
#
# Revision: 0
# Processed by: cddbd v1.5.1PL0 Copyright (c) Steve Scherf et al.
# Submitted via: CDex 1.51
#
DISCID=420e9c15
DTITLE=Harry James - Concerto for Trumpet (1939-1941)
DYEAR=2005
DGENRE=Jazz
TTITLE0=Chiribiribin
TTITLE1=Sweet Georgia Brown
TTITLE2=Jesse
TTITLE3='Tain't What You Do (It's The Way That You Do It)
TTITLE4=Two O'Clock Jump
TTITLE5=Indiana
TTITLE6=King Porter Stomp
TTITLE7=I Found A New Baby
TTITLE8=Feet Draggin' Blues
TTITLE9=All Or Nothing At All
TTITLE10=Sleepy Time Gal
TTITLE11=Flash
TTITLE12=Concerto for Trumpet
TTITLE13=Night Special
TTITLE14=I'm In The Market For You
TTITLE15=Back Beat Boogie
TTITLE16=Ol' Man River
TTITLE17=Music Makers
TTITLE18=Flatbush Flanagan
TTITLE19=A Little Bit Of Heaven
TTITLE20=Home, James
EXTD=YEAR: 2005
EXTT0=
EXTT1=
EXTT2=
EXTT3=
EXTT4=
EXTT5=
EXTT6=
EXTT7=
EXTT8=
EXTT9=
EXTT10=
EXTT11=
EXTT12=
EXTT13=
EXTT14=
EXTT15=
EXTT16=
EXTT17=
EXTT18=
EXTT19=
EXTT20=
PLAYORDER=
